<svg width="512" height="512" viewBox="0 0 512 512" fill="none" xmlns="http://www.w3.org/2000/svg">
<path d="M439.54 68.7H72.46C32.51 68.7 0 101.21 0 141.17V370.83C0 410.79 32.51 443.3 72.46 443.3H439.54C479.49 443.3 512 410.79 512 370.83V141.17C512 101.21 479.49 68.7 439.54 68.7ZM185.81 183.99L109.58 260.22L177.37 328.01C183.23 333.87 183.23 343.37 177.37 349.22C171.52 355.08 162.02 355.08 156.16 349.22L77.76 270.82C71.9 264.96 71.9 255.47 77.76 249.61L164.59 162.78C170.45 156.92 179.95 156.92 185.81 162.78C191.66 168.63 191.66 178.13 185.81 183.99ZM309.54 148.7L230.22 373.29C227.46 381.11 218.89 385.2 211.08 382.44C203.27 379.68 199.17 371.11 201.93 363.3L281.25 138.71C284.01 130.9 292.57 126.8 300.39 129.56C308.2 132.32 312.3 140.89 309.54 148.7ZM434.24 262.39L347.41 349.22C341.55 355.08 332.05 355.08 326.19 349.22C320.34 343.37 320.34 333.87 326.19 328.01L402.42 251.78L334.63 183.99C328.77 178.13 328.77 168.63 334.63 162.78C340.48 156.92 349.98 156.92 355.84 162.78L434.24 241.18C440.1 247.04 440.1 256.53 434.24 262.39Z" fill="#0E1821"/>
</svg>
