<svg width="512" height="512" viewBox="0 0 512 512" fill="none" xmlns="http://www.w3.org/2000/svg">
<path d="M78.3207 60.4214C78.307 60.4214 78.2914 60.4214 78.2777 60.4214C73.4352 60.4214 68.8806 62.3091 65.4414 65.7397C61.9643 69.2082 60.049 73.8265 60.049 78.7431V353.474C60.049 363.549 68.2772 371.765 78.3932 371.791C121.039 371.893 192.489 380.781 241.779 432.362V144.848C241.779 141.433 240.906 138.225 239.26 135.57C198.805 70.4201 121.063 60.5214 78.3207 60.4214Z" fill="#0E1821"/>
<path d="M451.953 353.474V78.7414C451.953 73.8248 450.037 69.2065 446.56 65.7379C443.121 62.3074 438.563 60.4197 433.726 60.4197C433.71 60.4197 433.695 60.4197 433.681 60.4197C390.94 60.5214 313.199 70.4201 272.742 135.57C271.095 138.225 270.225 141.433 270.225 144.848V432.36C319.515 380.779 390.964 371.891 433.61 371.789C443.724 371.763 451.953 363.547 451.953 353.474Z" fill="#0E1821"/>
<path d="M493.682 123.779H480.397V353.474C480.397 379.197 459.44 400.172 433.678 400.235C397.505 400.322 337.861 407.395 295.62 447.374C368.676 429.487 445.69 441.115 489.581 451.117C495.061 452.365 500.724 451.075 505.115 447.576C509.49 444.085 512 438.867 512 433.266V142.097C512.002 131.997 503.782 123.779 493.682 123.779Z" fill="#0E1821"/>
<path d="M31.6027 353.474V123.779H18.3183C8.21961 123.779 0 131.997 0 142.097V433.26C0 438.863 2.51001 444.08 6.8853 447.571C11.2727 451.068 16.9305 452.363 22.4195 451.111C66.3103 441.108 143.326 429.482 216.378 447.369C174.139 407.391 114.495 400.32 78.3225 400.234C52.5621 400.172 31.6027 379.197 31.6027 353.474Z" fill="#0E1821"/>
</svg>
